#N canvas 827 239 420 240 12;
#X obj 159 379 notein;
#X obj 79 959 noteout;
#N canvas 0 0 450 250 (subpatch) 0;
#X array array1 12 float 2;
#X coords 0 127 12 0 422 62 1;
#X restore -1 -1 graph;
#X obj -241 839 array get array1;
#X floatatom -201 799 5 0 0 0 - - - 0;
#X obj 639 399 array get array1;
#X obj 479 719 array set array1;
#X obj 639 439 spigot;
#X obj 1319 439 spigot;
#X obj 1319 399 == 0;
#X obj 1319 359 r NoteVel;
#X obj 639 319 r NoteNum;
#X obj 639 359 bng 19 250 50 0 empty empty empty 0 -10 0 12 #fcfcfc #000000 #000000;
#X msg 533 679 0;
#X obj 479 639 select 0;
#X obj 559 639 r NoteNum;
#X obj 479 679 f;
#X obj 1239 719 array set array1;
#X msg 1299 679 0;
#X obj 1299 639 r NoteNum;
#X obj 1239 639 select;
#X obj 1239 679 0;
#X obj 1299 839 array set array1;
#X obj 1359 759 r NoteNum;
#X obj 1299 759 select;
#X obj 1299 799 0;
#X obj 1359 959 array set array1;
#X obj 1419 879 r NoteNum;
#X obj 1359 879 select;
#X obj 1359 919 0;
#X obj 1419 1079 array set array1;
#X obj 1479 999 r NoteNum;
#X obj 1419 999 select;
#X obj 1419 1039 0;
#X msg 1359 799 1;
#X msg 1419 919 2;
#X msg 1479 1039 3;
#X obj 539 919 array set array1;
#X obj 599 839 r NoteNum;
#X obj 539 879 f;
#X obj 599 1119 array set array1;
#X obj 659 1039 r NoteNum;
#X obj 599 1079 f;
#X obj 659 1319 array set array1;
#X obj 719 1239 r NoteNum;
#X obj 659 1279 f;
#X msg 599 879 1;
#X msg 659 1079 2;
#X msg 719 1279 3;
#X obj 539 799 f;
#X obj 539 759 bng 19 250 50 0 empty empty empty 0 -10 0 12 #fcfcfc #000000 #000000;
#X obj 539 839 select 0;
#X obj 599 999 f;
#X obj 599 959 bng 19 250 50 0 empty empty empty 0 -10 0 12 #fcfcfc #000000 #000000;
#X obj 599 1039 select 0;
#X obj 659 1199 f;
#X obj 659 1159 bng 19 250 50 0 empty empty empty 0 -10 0 12 #fcfcfc #000000 #000000;
#X obj 659 1239 select 0;
#X obj 19 519 send NoteNum;
#X obj 59 479 send NoteVel;
#X floatatom 159 439 5 0 0 0 - - - 0;
#X obj 1319 1559 f;
#X obj 1359 1519 bng 25 250 50 0 empty empty empty 17 7 0 10 #e4e4e4 #4d4d4d #373737;
#X obj 1399 1479 f;
#X obj 1399 1619 noteout;
#X obj 1279 1519 r NoteNum;
#X obj 1479 1199 array set array1;
#X obj 1539 1119 r NoteNum;
#X obj 1479 1119 select;
#X obj 1479 1159 0;
#X msg 1539 1159 4;
#X obj 719 1520 array set array1;
#X obj 779 1440 r NoteNum;
#X obj 719 1480 f;
#X obj 719 1400 f;
#X obj 719 1359 bng 19 250 50 0 empty empty empty 0 -10 0 12 #fcfcfc #000000 #000000;
#X obj 719 1440 select 0;
#X msg 779 1480 4;
#X obj -200 968 moses 1;
#X obj -180 988 moses 1;
#X obj -240 928 moses 1;
#X obj -220 948 moses 1;
#X obj -160 1008 moses 1;
#X obj 779 1719 array set array1;
#X obj 839 1639 r NoteNum;
#X obj 779 1679 f;
#X obj 759 719 array set array1;
#X obj 819 639 r NoteNum;
#X obj 759 679 f;
#X obj 819 919 array set array1;
#X obj 879 839 r NoteNum;
#X obj 819 879 f;
#X obj 779 1599 f;
#X obj 779 1559 bng 19 250 50 0 empty empty empty 0 -10 0 12 #fcfcfc #000000 #000000;
#X obj 779 1639 select 0;
#X obj 759 599 f;
#X obj 759 559 bng 19 250 50 0 empty empty empty 0 -10 0 12 #fcfcfc #000000 #000000;
#X obj 759 639 select 0;
#X obj 819 799 f;
#X obj 819 759 bng 19 250 50 0 empty empty empty 0 -10 0 12 #fcfcfc #000000 #000000;
#X obj 819 839 select 0;
#X obj 879 1119 array set array1;
#X obj 939 1039 r NoteNum;
#X obj 879 1079 f;
#X obj 879 999 f;
#X obj 879 958 bng 19 250 50 0 empty empty empty 0 -10 0 12 #fcfcfc #000000 #000000;
#X obj 879 1039 select 0;
#X obj 939 1319 array set array1;
#X obj 999 1239 r NoteNum;
#X obj 939 1279 f;
#X obj 939 1199 f;
#X obj 939 1159 bng 19 250 50 0 empty empty empty 0 -10 0 12 #fcfcfc #000000 #000000;
#X obj 939 1239 select 0;
#X obj 999 1519 array set array1;
#X obj 1059 1439 r NoteNum;
#X obj 999 1479 f;
#X obj 999 1399 f;
#X obj 999 1358 bng 19 250 50 0 empty empty empty 0 -10 0 12 #fcfcfc #000000 #000000;
#X obj 999 1439 select 0;
#X msg 839 1679 5;
#X msg 819 679 6;
#X msg 879 879 7;
#X msg 939 1079 8;
#X msg 999 1279 9;
#X msg 1059 1479 10;
#X obj -100 1068 moses 1;
#X obj -80 1088 moses 1;
#X obj -140 1028 moses 1;
#X obj -120 1048 moses 1;
#X obj -60 1108 moses 1;
#X obj -40 1128 moses 1;
#X obj -241 879 unpack f f f f f f f f f f f f;
#X obj -20 1148 moses 1;
#X obj 639 479 unpack f f f f f f f f f f f f;
#X obj 1059 1720 array set array1;
#X obj 1119 1640 r NoteNum;
#X obj 1059 1680 f;
#X obj 1059 1600 f;
#X obj 1059 1559 bng 19 250 50 0 empty empty empty 0 -10 0 12 #fcfcfc #000000 #000000;
#X obj 1059 1640 select 0;
#X msg 1119 1680 11;
#X obj 1539 1319 array set array1;
#X obj 1599 1239 r NoteNum;
#X obj 1539 1239 select;
#X obj 1539 1279 0;
#X obj 1679 719 array set array1;
#X obj 1739 639 r NoteNum;
#X obj 1679 639 select;
#X obj 1679 679 0;
#X obj 1739 839 array set array1;
#X obj 1799 759 r NoteNum;
#X obj 1739 759 select;
#X obj 1739 799 0;
#X obj 1799 959 array set array1;
#X obj 1859 879 r NoteNum;
#X obj 1799 879 select;
#X obj 1799 919 0;
#X obj 1859 1079 array set array1;
#X obj 1919 999 r NoteNum;
#X obj 1859 999 select;
#X obj 1859 1039 0;
#X obj 1919 1199 array set array1;
#X obj 1979 1119 r NoteNum;
#X obj 1919 1119 select;
#X obj 1919 1159 0;
#X msg 1599 1279 5;
#X msg 1739 679 6;
#X msg 1799 799 7;
#X msg 1859 919 8;
#X msg 1919 1039 9;
#X msg 1979 1159 10;
#X obj 1979 1319 array set array1;
#X obj 2039 1239 r NoteNum;
#X obj 1979 1239 select;
#X obj 1979 1279 0;
#X msg 2039 1279 11;
#X obj 1319 479 unpack f f f f f f f f f f f f;
#X obj 319 379 bendin;
#X obj 319 459 bendout;
#X obj 319 419 - 8192;
#X obj 239 379 ctlin;
#X obj 239 459 ctlout;
#X obj -881 599 playhead, f 23;
#X obj -821 619 nbx 5 21 -1e+37 1e+37 0 0 empty empty empty 0 -8 0 10 #e4e4e4 #5a5a5a #5a5a5a 0 256;
#X obj -761 619 nbx 3 21 -1e+37 1e+37 0 0 empty empty empty 0 -8 0 10 #e4e4e4 #5a5a5a #5a5a5a 0 256;
#X obj -661 719 polymetro;
#X floatatom -661 759 5 0 0 0 - - - 0;
#X floatatom -621 759 5 0 0 0 - - - 0;
#X obj -621 799 bng 25 250 50 0 empty empty empty 17 7 0 10 #333333 #eeeeee #e4e4e4;
#X msg -431 579 1.5;
#X msg -391 579 3;
#X msg -521 559 4;
#X msg -491 579 8;
#X obj -621 839 spigot;
#X obj -61 579 tgl 25 0 empty empty empty 17 7 0 10 #333333 #eeeeee #e4e4e4 0 1;
#X msg -361 559 5;
#X msg -331 579 6;
#X msg -301 559 7;
#X msg -271 579 9;
#X msg -241 559 10;
#X obj -241 419 select 12 13 14 15 16 17 18 19 20 21 22;
#X msg -461 559 16;
#X obj 19 79 note 382 38 Inter empty 0 51 51 51 0 205 205 205 1 1 MIDI Machinegun (WIP);
#X obj 19 159 note 142 14 Inter empty 0 51 51 51 0 224 224 224 0 0 Single note trigger: 12;
#X obj 239 159 note 161 14 Inter empty 0 51 51 51 0 224 224 224 0 2 Patch: Black Imp\\\, Omega9;
#X obj 239 199 note 162 14 Inter empty 0 51 51 51 0 224 224 224 0 2 https://omega9.web.app;
#X obj 239 179 note 161 14 Inter empty 0 51 51 51 0 224 224 224 0 2 Idea: Omega9;
#X obj 19 179 note 162 14 Inter empty 0 51 51 51 0 224 224 224 0 0 Start "Play" inside your DAW to use machinegun triggers from 13 to 22;
#X obj 199 179 note 22 14 Inter empty 0 51 51 51 0 224 224 224 0 1 ||;
#X obj 199 199 note 22 14 Inter empty 0 51 51 51 0 224 224 224 0 1 ||;
#X obj 19 139 note 382 14 Inter empty 0 51 51 51 0 224 224 224 0 1 ================================================;
#X obj 199 159 note 22 14 Inter empty 0 51 51 51 0 224 224 224 0 1 ||;
#X connect 0 0 200 0;
#X connect 0 1 59 0;
#X connect 0 1 60 0;
#X connect 0 2 1 2;
#X connect 3 0 131 0;
#X connect 4 0 3 1;
#X connect 5 0 7 0;
#X connect 5 0 8 0;
#X connect 7 0 133 0;
#X connect 8 0 176 0;
#X connect 9 0 8 1;
#X connect 10 0 9 0;
#X connect 10 0 7 1;
#X connect 11 0 12 0;
#X connect 12 0 5 0;
#X connect 13 0 6 1;
#X connect 14 0 16 0;
#X connect 14 1 50 0;
#X connect 15 0 16 1;
#X connect 15 0 13 0;
#X connect 16 0 6 0;
#X connect 18 0 17 1;
#X connect 19 0 20 1;
#X connect 19 0 18 0;
#X connect 20 0 21 0;
#X connect 21 0 17 0;
#X connect 21 0 63 0;
#X connect 23 0 24 1;
#X connect 23 0 34 0;
#X connect 24 0 25 0;
#X connect 25 0 22 0;
#X connect 25 0 63 0;
#X connect 27 0 28 1;
#X connect 27 0 35 0;
#X connect 28 0 29 0;
#X connect 29 0 26 0;
#X connect 29 0 63 0;
#X connect 31 0 32 1;
#X connect 31 0 36 0;
#X connect 32 0 33 0;
#X connect 33 0 30 0;
#X connect 33 0 63 0;
#X connect 34 0 22 1;
#X connect 35 0 26 1;
#X connect 36 0 30 1;
#X connect 38 0 39 1;
#X connect 38 0 46 0;
#X connect 39 0 37 0;
#X connect 41 0 42 1;
#X connect 41 0 47 0;
#X connect 42 0 40 0;
#X connect 44 0 45 1;
#X connect 44 0 48 0;
#X connect 45 0 43 0;
#X connect 46 0 37 1;
#X connect 47 0 40 1;
#X connect 48 0 43 1;
#X connect 49 0 51 0;
#X connect 50 0 49 0;
#X connect 51 0 39 0;
#X connect 51 1 53 0;
#X connect 52 0 54 0;
#X connect 53 0 52 0;
#X connect 54 0 42 0;
#X connect 54 1 56 0;
#X connect 55 0 57 0;
#X connect 56 0 55 0;
#X connect 57 0 45 0;
#X connect 57 1 75 0;
#X connect 60 0 1 1;
#X connect 61 0 64 0;
#X connect 62 0 61 0;
#X connect 63 0 62 0;
#X connect 63 0 64 1;
#X connect 65 0 61 1;
#X connect 67 0 68 1;
#X connect 67 0 70 0;
#X connect 68 0 69 0;
#X connect 69 0 66 0;
#X connect 69 0 63 0;
#X connect 70 0 66 1;
#X connect 72 0 73 1;
#X connect 72 0 77 0;
#X connect 73 0 71 0;
#X connect 74 0 76 0;
#X connect 75 0 74 0;
#X connect 76 0 73 0;
#X connect 76 1 93 0;
#X connect 77 0 71 1;
#X connect 78 1 1 0;
#X connect 79 1 1 0;
#X connect 80 1 1 0;
#X connect 81 1 1 0;
#X connect 82 1 1 0;
#X connect 84 0 85 1;
#X connect 84 0 119 0;
#X connect 85 0 83 0;
#X connect 87 0 88 1;
#X connect 87 0 120 0;
#X connect 88 0 86 0;
#X connect 90 0 91 1;
#X connect 90 0 121 0;
#X connect 91 0 89 0;
#X connect 92 0 94 0;
#X connect 93 0 92 0;
#X connect 94 0 85 0;
#X connect 94 1 96 0;
#X connect 95 0 97 0;
#X connect 96 0 95 0;
#X connect 97 0 88 0;
#X connect 97 1 99 0;
#X connect 98 0 100 0;
#X connect 99 0 98 0;
#X connect 100 0 91 0;
#X connect 100 1 105 0;
#X connect 102 0 103 1;
#X connect 102 0 122 0;
#X connect 103 0 101 0;
#X connect 104 0 106 0;
#X connect 105 0 104 0;
#X connect 106 0 103 0;
#X connect 106 1 111 0;
#X connect 108 0 109 1;
#X connect 108 0 123 0;
#X connect 109 0 107 0;
#X connect 110 0 112 0;
#X connect 111 0 110 0;
#X connect 112 0 109 0;
#X connect 112 1 117 0;
#X connect 114 0 115 1;
#X connect 114 0 124 0;
#X connect 115 0 113 0;
#X connect 116 0 118 0;
#X connect 117 0 116 0;
#X connect 118 0 115 0;
#X connect 118 1 138 0;
#X connect 119 0 83 1;
#X connect 120 0 86 1;
#X connect 121 0 89 1;
#X connect 122 0 101 1;
#X connect 123 0 107 1;
#X connect 124 0 113 1;
#X connect 125 1 1 0;
#X connect 126 1 1 0;
#X connect 127 1 1 0;
#X connect 128 1 1 0;
#X connect 129 1 1 0;
#X connect 130 1 1 0;
#X connect 131 0 80 0;
#X connect 131 1 81 0;
#X connect 131 2 78 0;
#X connect 131 3 79 0;
#X connect 131 4 82 0;
#X connect 131 5 127 0;
#X connect 131 6 128 0;
#X connect 131 7 125 0;
#X connect 131 8 126 0;
#X connect 131 9 129 0;
#X connect 131 10 130 0;
#X connect 131 11 132 0;
#X connect 132 1 1 0;
#X connect 133 0 14 0;
#X connect 133 1 49 1;
#X connect 133 2 52 1;
#X connect 133 3 55 1;
#X connect 133 4 74 1;
#X connect 133 5 92 1;
#X connect 133 6 95 1;
#X connect 133 7 98 1;
#X connect 133 8 104 1;
#X connect 133 9 110 1;
#X connect 133 10 116 1;
#X connect 133 11 137 1;
#X connect 135 0 136 1;
#X connect 135 0 140 0;
#X connect 136 0 134 0;
#X connect 137 0 139 0;
#X connect 138 0 137 0;
#X connect 139 0 136 0;
#X connect 140 0 134 1;
#X connect 142 0 143 1;
#X connect 142 0 165 0;
#X connect 143 0 144 0;
#X connect 144 0 141 0;
#X connect 144 0 63 0;
#X connect 146 0 147 1;
#X connect 146 0 166 0;
#X connect 147 0 148 0;
#X connect 148 0 145 0;
#X connect 148 0 63 0;
#X connect 150 0 151 1;
#X connect 150 0 167 0;
#X connect 151 0 152 0;
#X connect 152 0 149 0;
#X connect 152 0 63 0;
#X connect 154 0 155 1;
#X connect 154 0 168 0;
#X connect 155 0 156 0;
#X connect 156 0 153 0;
#X connect 156 0 63 0;
#X connect 158 0 159 1;
#X connect 158 0 169 0;
#X connect 159 0 160 0;
#X connect 160 0 157 0;
#X connect 160 0 63 0;
#X connect 162 0 163 1;
#X connect 162 0 170 0;
#X connect 163 0 164 0;
#X connect 164 0 161 0;
#X connect 164 0 63 0;
#X connect 165 0 141 1;
#X connect 166 0 145 1;
#X connect 167 0 149 1;
#X connect 168 0 153 1;
#X connect 169 0 157 1;
#X connect 170 0 161 1;
#X connect 172 0 173 1;
#X connect 172 0 175 0;
#X connect 173 0 174 0;
#X connect 174 0 171 0;
#X connect 174 0 63 0;
#X connect 175 0 171 1;
#X connect 176 0 20 0;
#X connect 176 1 24 0;
#X connect 176 2 28 0;
#X connect 176 3 32 0;
#X connect 176 4 68 0;
#X connect 176 5 143 0;
#X connect 176 6 147 0;
#X connect 176 7 151 0;
#X connect 176 8 155 0;
#X connect 176 9 159 0;
#X connect 176 10 163 0;
#X connect 176 11 173 0;
#X connect 177 0 179 0;
#X connect 177 1 178 1;
#X connect 179 0 178 0;
#X connect 180 0 181 0;
#X connect 180 1 181 1;
#X connect 180 2 181 2;
#X connect 182 0 185 0;
#X connect 182 5 183 0;
#X connect 182 5 185 1;
#X connect 182 7 184 0;
#X connect 185 0 186 0;
#X connect 185 1 187 0;
#X connect 187 0 188 0;
#X connect 188 0 193 0;
#X connect 189 0 185 2;
#X connect 190 0 185 2;
#X connect 191 0 185 2;
#X connect 192 0 185 2;
#X connect 193 0 3 0;
#X connect 194 0 193 1;
#X connect 195 0 185 2;
#X connect 196 0 185 2;
#X connect 197 0 185 2;
#X connect 198 0 185 2;
#X connect 199 0 185 2;
#X connect 200 0 3 0;
#X connect 200 1 194 0;
#X connect 200 1 191 0;
#X connect 200 2 194 0;
#X connect 200 2 192 0;
#X connect 200 3 194 0;
#X connect 200 3 201 0;
#X connect 200 4 194 0;
#X connect 200 4 189 0;
#X connect 200 5 194 0;
#X connect 200 5 190 0;
#X connect 200 6 194 0;
#X connect 200 6 195 0;
#X connect 200 7 194 0;
#X connect 200 7 196 0;
#X connect 200 8 194 0;
#X connect 200 8 197 0;
#X connect 200 9 194 0;
#X connect 200 9 198 0;
#X connect 200 10 194 0;
#X connect 200 10 199 0;
#X connect 200 11 58 0;
#X connect 201 0 185 2;
