#N canvas 827 239 957 280 12;
#X obj 19 19 keyboard 16 82 8 1 0 0 empty empty;
#X obj 19 119 hradio 41 1 0 3 empty empty <=\ PowerChord 140 20 0 20 #e4e4e4 #4d4d4d #373737 0;
#X obj -1 -81 notein;
#X obj -121 259 noteout;
#X obj 19 179 keyboard 16 82 8 1 0 0 empty empty;
#X obj 99 -81 param param1;
#X floatatom -121 -1 4 0 127 0 - - - 0;
#X obj -61 159 + 12;
#X obj -101 79 + 7, f 5;
#X obj -61 139 + 7;
#X obj -101 199 selector 3;
#X text -181 -2 Note;
#X text -181 78 Fifth;
#X text -181 138 Fifth;
#X text -181 158 Octave;
#X obj 239 -121 tgl 21 0 empty empty empty 17 7 0 10 #e4e4e4 #5a5a5a #5a5a5a 0 1;
#X msg 100 -121 create;
#X msg 159 -121 range 0 2;
#X obj -241 -201 bendin;
#X obj -241 -121 bendout;
#X obj -241 -161 - 8192;
#X obj -321 -201 ctlin;
#X obj -321 -121 ctlout;
#X connect 0 0 6 0;
#X connect 1 0 10 3;
#X connect 2 0 0 0;
#X connect 2 1 0 1;
#X connect 2 1 4 1;
#X connect 2 1 3 1;
#X connect 5 0 1 0;
#X connect 6 0 9 0;
#X connect 6 0 7 0;
#X connect 6 0 8 0;
#X connect 6 0 3 0;
#X connect 6 0 4 0;
#X connect 7 0 10 2;
#X connect 8 0 10 1;
#X connect 9 0 10 2;
#X connect 10 0 3 0;
#X connect 10 0 4 0;
#X connect 15 0 5 1;
#X connect 16 0 5 0;
#X connect 17 0 5 0;
#X connect 18 0 20 0;
#X connect 18 1 19 1;
#X connect 20 0 19 0;
#X connect 21 0 22 0;
#X connect 21 1 22 1;
#X connect 21 2 22 2;
