#N canvas 771 1333 453 597 16;
#X msg 119 139 54 55 59 60 64 66, f 16;
#X msg 119 59 60 61 63 64 66 67 69 70, f 16;
#X text 39 138 Iwato;
#X text 39 98 Octatonic B;
#X text 39 58 Octatonic C;
#X msg 119 99 59 60 62 63 65 66 68 69, f 16;
#X obj 179 919 midiout;
#X floatatom 179 859 5 0 0 0 - - - 0;
#X msg 179 819 144 \, \$1 \, 120;
#X msg 279 819 128 \$1 0;
#X obj 339 359 tgl 41 0 empty empty empty 17 7 0 10 #dfdfdf #000000 #000000 0 1;
#X text 379 358 on/off;
#X obj 339 419 metro 250;
#X obj 339 699 else/display 7;
#X obj 339 659 makenote 20 20;
#X obj 179 359 tgl 41 0 empty empty empty 17 7 0 10 #dfdfdf #000000 #000000 0 1;
#X text 219 358 on/off;
#X obj 179 699 else/display 7;
#X obj 179 659 makenote 20 20;
#X obj 179 419 metro 500;
#X obj 19 359 tgl 41 0 empty empty empty 17 7 0 10 #dfdfdf #000000 #000000 0 1;
#X text 59 358 on/off;
#X obj 19 699 else/display 7;
#X obj 19 659 makenote 20 20;
#X obj 79 459 rand.list;
#X obj 239 459 rand.list;
#X obj 399 459 rand.list;
#X obj 179 619 - 12;
#X obj 19 619 - 24;
#X obj 19 419 metro 750;
#X text 79 698 MIDI Note;
#X text 239 698 MIDI Note;
#X text 399 698 MIDI Note;
#X obj 19 459 list.seq;
#X obj 179 459 list.seq;
#X obj 339 459 list.seq;
#X obj 19 579 multiplex 0 1;
#X obj 19 519 hradio 20 1 0 2 empty empty empty 0 -8 0 10 #e4e4e4 #4d4d4d #373737 0;
#X obj 179 579 multiplex 0 1;
#X obj 179 519 hradio 20 1 0 2 empty empty empty 0 -8 0 10 #e4e4e4 #4d4d4d #373737 0;
#X obj 339 579 multiplex 0 1;
#X obj 339 519 hradio 20 1 0 2 empty empty empty 0 -8 0 10 #e4e4e4 #4d4d4d #373737 0;
#X text 59 518 seq/rand;
#X text 219 518 seq/rand;
#X text 379 518 seq/rand;
#X msg 419 59 60 62 64 66 68 70, f 16;
#X text 319 58 Whole tone C;
#X text 319 98 Whole tone B;
#X msg 419 99 59 61 63 65 67 69, f 16;
#X msg 419 139 60 62 64 67 69, f 16;
#X obj 819 79 sel 60 62 64;
#X obj 819 99 t b;
#X obj 839 99 t b;
#X obj 859 99 t b;
#X obj 819 39 notein;
#X text 819 18 Toggles and switches;
#X obj 659 99 t b;
#X obj 679 99 t b;
#X obj 699 99 t b;
#X obj 659 79 sel 48 49 50 51 52 53;
#X obj 719 99 t b;
#X obj 739 99 t b;
#X obj 759 99 t b;
#X obj 59 219 keyboard 16 80 3 3 0 0 empty empty;
#X text 39 18 Scales:, f 10;
#X obj 19 59 bng 21 250 50 0 empty empty empty 17 7 0 10 #333333 #eeeeee #e4e4e4;
#X obj 19 99 bng 21 250 50 0 empty empty empty 17 7 0 10 #333333 #eeeeee #e4e4e4;
#X obj 19 139 bng 21 250 50 0 empty empty empty 17 7 0 10 #333333 #eeeeee #e4e4e4;
#X obj 299 59 bng 21 250 50 0 empty empty empty 17 7 0 10 #333333 #eeeeee #e4e4e4;
#X obj 299 99 bng 21 250 50 0 empty empty empty 17 7 0 10 #333333 #eeeeee #e4e4e4;
#X obj 299 139 bng 21 250 50 0 empty empty empty 17 7 0 10 #333333 #eeeeee #e4e4e4;
#X text 319 138 Pent C;
#X floatatom 59 299 5 0 0 0 - - - 0;
#X connect 0 0 26 1;
#X connect 0 0 35 0;
#X connect 0 0 33 0;
#X connect 0 0 24 1;
#X connect 0 0 25 1;
#X connect 1 0 26 1;
#X connect 1 0 35 0;
#X connect 1 0 33 0;
#X connect 1 0 24 1;
#X connect 1 0 25 1;
#X connect 5 0 26 1;
#X connect 5 0 35 0;
#X connect 5 0 33 0;
#X connect 5 0 24 1;
#X connect 5 0 25 1;
#X connect 7 0 6 0;
#X connect 8 0 7 0;
#X connect 9 0 6 0;
#X connect 10 0 12 0;
#X connect 12 0 26 0;
#X connect 12 0 35 0;
#X connect 13 0 8 0;
#X connect 13 0 9 0;
#X connect 14 0 13 0;
#X connect 15 0 19 0;
#X connect 17 0 8 0;
#X connect 17 0 9 0;
#X connect 18 0 17 0;
#X connect 19 0 25 0;
#X connect 19 0 34 0;
#X connect 20 0 29 0;
#X connect 22 0 8 0;
#X connect 22 0 9 0;
#X connect 23 0 22 0;
#X connect 24 0 36 1;
#X connect 25 0 38 1;
#X connect 26 0 40 1;
#X connect 27 0 18 0;
#X connect 28 0 23 0;
#X connect 29 0 24 0;
#X connect 29 0 33 0;
#X connect 33 0 36 0;
#X connect 34 0 38 0;
#X connect 35 0 40 0;
#X connect 36 0 28 0;
#X connect 37 0 36 2;
#X connect 38 0 27 0;
#X connect 39 0 38 2;
#X connect 40 0 14 0;
#X connect 41 0 40 2;
#X connect 45 0 33 0;
#X connect 45 0 24 1;
#X connect 45 0 34 0;
#X connect 45 0 25 1;
#X connect 45 0 35 0;
#X connect 45 0 26 1;
#X connect 48 0 33 0;
#X connect 48 0 24 1;
#X connect 48 0 34 0;
#X connect 48 0 25 1;
#X connect 48 0 35 0;
#X connect 48 0 26 1;
#X connect 49 0 33 0;
#X connect 49 0 24 1;
#X connect 49 0 34 0;
#X connect 49 0 25 1;
#X connect 49 0 35 0;
#X connect 49 0 26 1;
#X connect 50 0 51 0;
#X connect 50 1 52 0;
#X connect 50 2 53 0;
#X connect 51 0 20 0;
#X connect 52 0 15 0;
#X connect 53 0 10 0;
#X connect 54 0 50 0;
#X connect 54 0 59 0;
#X connect 54 0 63 0;
#X connect 54 1 63 1;
#X connect 56 0 1 0;
#X connect 57 0 5 0;
#X connect 58 0 0 0;
#X connect 59 0 56 0;
#X connect 59 1 57 0;
#X connect 59 2 58 0;
#X connect 59 3 60 0;
#X connect 59 4 61 0;
#X connect 59 5 62 0;
#X connect 60 0 45 0;
#X connect 61 0 48 0;
#X connect 62 0 49 0;
#X connect 63 0 72 0;
#X connect 65 0 1 0;
#X connect 66 0 5 0;
#X connect 67 0 0 0;
#X connect 68 0 45 0;
#X connect 69 0 48 0;
#X connect 70 0 49 0;
